<svg width="65" height="65" viewBox="0 0 65 65" fill="none" xmlns="http://www.w3.org/2000/svg">
<path d="M34.45 29.25C33.15 28.925 31.85 28.275 30.875 27.3C29.9 26.975 29.575 26 29.575 25.35C29.575 24.7 29.9 23.725 30.55 23.4C31.525 22.75 32.5 22.1 33.475 22.425C35.425 22.425 37.05 23.4 38.025 24.7L40.95 20.8C39.975 19.825 39 19.175 38.025 18.525C37.05 17.875 35.75 17.55 34.45 17.55V13H30.55V17.55C28.925 17.875 27.3 18.85 26 20.15C24.7 21.775 23.725 23.725 24.05 25.675C24.05 27.625 24.7 29.575 26 30.875C27.625 32.5 29.9 33.475 31.85 34.45C32.825 34.775 34.125 35.425 35.1 36.075C35.75 36.725 36.075 37.7 36.075 38.675C36.075 39.65 35.75 40.625 35.1 41.6C34.125 42.575 32.825 42.9 31.85 42.9C30.55 42.9 28.925 42.575 27.95 41.6C26.975 40.95 26 39.975 25.35 39L22.1 42.575C23.075 43.875 24.05 44.85 25.35 45.825C26.975 46.8 28.925 47.775 30.875 47.775V52H34.45V47.125C36.4 46.8 38.025 45.825 39.325 44.525C40.95 42.9 41.925 40.3 41.925 38.025C41.925 36.075 41.275 33.8 39.65 32.5C38.025 30.875 36.4 29.9 34.45 29.25ZM32.5 6.5C18.2 6.5 6.5 18.2 6.5 32.5C6.5 46.8 18.2 58.5 32.5 58.5C46.8 58.5 58.5 46.8 58.5 32.5C58.5 18.2 46.8 6.5 32.5 6.5ZM32.5 54.925C20.15 54.925 10.075 44.85 10.075 32.5C10.075 20.15 20.15 10.075 32.5 10.075C44.85 10.075 54.925 20.15 54.925 32.5C54.925 44.85 44.85 54.925 32.5 54.925Z" fill="#029837"/>
</svg>
