<svg width="17" height="14" viewBox="0 0 17 14" fill="none" xmlns="http://www.w3.org/2000/svg">
<path d="M16.6883 13.832V9.464C16.6883 7.832 16.4003 6.328 15.8243 4.952C15.2483 3.576 14.2723 2.184 12.8963 0.775997L10.4003 2.744C11.4243 3.8 12.1443 4.776 12.5603 5.672C12.9763 6.568 13.1843 7.528 13.1843 8.552L14.6723 7.16H9.96827V13.832H16.6883ZM7.13627 13.832V9.464C7.13627 7.832 6.84827 6.328 6.27227 4.952C5.69627 3.576 4.72027 2.184 3.34427 0.775997L0.848273 2.744C1.87227 3.8 2.59227 4.776 3.00827 5.672C3.42427 6.568 3.63227 7.528 3.63227 8.552L5.12027 7.16H0.416273V13.832H7.13627Z" fill="#029837"/>
</svg>
